# xmcd
#
# Track frame offsets:
#	150
#	23049
#	41833
#	55637
#	71551
#	87793
#	107495
#	125466
#	142742
#	160021
#	178902
#	188121
#	196627
#	222026
#	246555
#	266872
#	286959
#	299861
#	315016
#	333176
#
# Disc length: 4679 seconds
#
# Revision: 0
# Processed by: cddbd v1.4PL0 Copyright (c) Steve Scherf et al.
# Submitted via: dBpowerAMP V4.0
#
DISCID=20124514
DTITLE=Alicia Keys - Songs in A Minor
DYEAR=1900
DGENRE=R&B
TTITLE0=piano and i
TTITLE1=girlfriend
TTITLE2=how come you don't call me
TTITLE3=fallin'
TTITLE4=troubles
TTITLE5=rock with u
TTITLE6=a woman's worth
TTITLE7=the life
TTITLE8=goodbye
TTITLE9=jane doe
TTITLE10=never felt this way
TTITLE11=butterflyz
TTITLE12=mr. man
TTITLE13=why do i feel so sad
TTITLE14=caged bird
TTITLE15=lovin' you
TTITLE16=I would like to get to know you/reggae beat
TTITLE17=Now and forever/n sync
TTITLE18=get your freak on/missa elliot
TTITLE19=i'll make love to you/boyz 2 men
EXTD=
EXTT0=
EXTT1=
EXTT2=
EXTT3=
EXTT4=
EXTT5=
EXTT6=
EXTT7=
EXTT8=
EXTT9=
EXTT10=
EXTT11=
EXTT12=
EXTT13=
EXTT14=
EXTT15=
EXTT16=
EXTT17=
EXTT18=
EXTT19=
PLAYORDER=
